<svg xmlns="http://www.w3.org/2000/svg" xmlns:xlink="http://www.w3.org/1999/xlink" viewBox="0 0 1799 484">
  <defs>
    <style>
      .cls-1 {
        isolation: isolate;
      }

      .cls-2 {
        fill: url(#linear-gradient);
      }

      .cls-11, .cls-13, .cls-15, .cls-17, .cls-19, .cls-21, .cls-23, .cls-25, .cls-27, .cls-29, .cls-3, .cls-5, .cls-7, .cls-9 {
        opacity: 0.4;
      }

      .cls-3 {
        fill: url(#radial-gradient);
      }

      .cls-10, .cls-12, .cls-14, .cls-16, .cls-18, .cls-20, .cls-22, .cls-24, .cls-26, .cls-28, .cls-30, .cls-4, .cls-6, .cls-8 {
        mix-blend-mode: screen;
      }

      .cls-4 {
        fill: url(#radial-gradient-2);
      }

      .cls-5 {
        fill: url(#radial-gradient-3);
      }

      .cls-6 {
        fill: url(#radial-gradient-4);
      }

      .cls-7 {
        fill: url(#radial-gradient-5);
      }

      .cls-8 {
        fill: url(#radial-gradient-6);
      }

      .cls-9 {
        fill: url(#radial-gradient-7);
      }

      .cls-10 {
        fill: url(#radial-gradient-8);
      }

      .cls-11 {
        fill: url(#radial-gradient-9);
      }

      .cls-12 {
        fill: url(#radial-gradient-10);
      }

      .cls-13 {
        fill: url(#radial-gradient-11);
      }

      .cls-14 {
        fill: url(#radial-gradient-12);
      }

      .cls-15 {
        fill: url(#radial-gradient-13);
      }

      .cls-16 {
        fill: url(#radial-gradient-14);
      }

      .cls-17 {
        fill: url(#radial-gradient-15);
      }

      .cls-18 {
        fill: url(#radial-gradient-16);
      }

      .cls-19 {
        fill: url(#radial-gradient-17);
      }

      .cls-20 {
        fill: url(#radial-gradient-18);
      }

      .cls-21 {
        fill: url(#radial-gradient-19);
      }

      .cls-22 {
        fill: url(#radial-gradient-20);
      }

      .cls-23 {
        fill: url(#radial-gradient-21);
      }

      .cls-24 {
        fill: url(#radial-gradient-22);
      }

      .cls-25 {
        fill: url(#radial-gradient-23);
      }

      .cls-26 {
        fill: url(#radial-gradient-24);
      }

      .cls-27 {
        fill: url(#radial-gradient-25);
      }

      .cls-28 {
        fill: url(#radial-gradient-26);
      }

      .cls-29 {
        fill: url(#radial-gradient-27);
      }

      .cls-30 {
        fill: url(#radial-gradient-28);
      }

      .cls-31 {
        opacity: 0.57;
      }

      .cls-32 {
        fill: #fff;
      }

      .cls-33 {
        fill: gray;
      }

      .cls-34 {
        fill: #666;
      }

      .cls-35 {
        opacity: 0.46;
      }

      .cls-36 {
        fill: #4d4d4d;
      }

      .cls-37 {
        fill: #e6e6e6;
      }

      .cls-38 {
        fill: #f2f2f2;
      }

      .cls-39 {
        fill: #ccc;
      }

      .cls-40 {
        fill: #ea461f;
      }

      .cls-41 {
        fill: #c93b1f;
      }

      .cls-42 {
        fill: #e5bf9e;
      }

      .cls-43 {
        fill-opacity: 0.11;
      }

      .cls-44 {
        fill: #f7931e;
      }

      .cls-45 {
        fill: #ffb469;
      }

      .cls-46 {
        opacity: 0.14;
      }

      .cls-47 {
        fill: #21cce8;
      }

      .cls-48 {
        fill: #bcd5d8;
      }

      .cls-49 {
        fill: #772417;
      }
    </style>
    <linearGradient id="linear-gradient" x1="300.43" y1="514.75" x2="590.32" y2="382.77" gradientUnits="userSpaceOnUse">
      <stop offset="0" stop-color="#a8e0ff"/>
      <stop offset="0.08" stop-color="#9fdbfc"/>
      <stop offset="0.2" stop-color="#85cff5"/>
      <stop offset="0.36" stop-color="#5cbae9"/>
      <stop offset="0.55" stop-color="#239ed8"/>
      <stop offset="0.57" stop-color="#1e9cd7"/>
      <stop offset="0.87" stop-color="#0075be"/>
      <stop offset="0.99" stop-color="#005b97"/>
    </linearGradient>
    <radialGradient id="radial-gradient" cx="1555" cy="44.71" r="12.54" xlink:href="#linear-gradient"/>
    <radialGradient id="radial-gradient-2" cx="1554" cy="45" r="6" gradientUnits="userSpaceOnUse">
      <stop offset="0.15" stop-color="#fff"/>
      <stop offset="0.17" stop-color="#f4f4f4"/>
      <stop offset="0.27" stop-color="#bcbcbc"/>
      <stop offset="0.37" stop-color="#8a8a8a"/>
      <stop offset="0.47" stop-color="#5f5f5f"/>
      <stop offset="0.57" stop-color="#3d3d3d"/>
      <stop offset="0.67" stop-color="#222"/>
      <stop offset="0.78" stop-color="#0f0f0f"/>
      <stop offset="0.89" stop-color="#040404"/>
      <stop offset="1"/>
    </radialGradient>
    <radialGradient id="radial-gradient-3" cx="1020" cy="289.71" r="12.54" xlink:href="#linear-gradient"/>
    <radialGradient id="radial-gradient-4" cx="1019" cy="290" xlink:href="#radial-gradient-2"/>
    <radialGradient id="radial-gradient-5" cx="1027" cy="119.71" r="12.54" xlink:href="#linear-gradient"/>
    <radialGradient id="radial-gradient-6" cx="1026" cy="120" xlink:href="#radial-gradient-2"/>
    <radialGradient id="radial-gradient-7" cx="1461" cy="373.71" r="12.54" xlink:href="#linear-gradient"/>
    <radialGradient id="radial-gradient-8" cx="1460" cy="374" xlink:href="#radial-gradient-2"/>
    <radialGradient id="radial-gradient-9" cx="1170" cy="436.71" r="12.54" xlink:href="#linear-gradient"/>
    <radialGradient id="radial-gradient-10" cx="1169" cy="437" xlink:href="#radial-gradient-2"/>
    <radialGradient id="radial-gradient-11" cx="1442" cy="173.71" r="12.54" xlink:href="#linear-gradient"/>
    <radialGradient id="radial-gradient-12" cx="1441" cy="174" xlink:href="#radial-gradient-2"/>
    <radialGradient id="radial-gradient-13" cx="1710" cy="121.71" r="12.54" xlink:href="#linear-gradient"/>
    <radialGradient id="radial-gradient-14" cx="1709" cy="122" xlink:href="#radial-gradient-2"/>
    <radialGradient id="radial-gradient-15" cx="1350" cy="313.71" r="12.54" xlink:href="#linear-gradient"/>
    <radialGradient id="radial-gradient-16" cx="1349" cy="314" xlink:href="#radial-gradient-2"/>
    <radialGradient id="radial-gradient-17" cx="1703" cy="423.71" r="12.54" xlink:href="#linear-gradient"/>
    <radialGradient id="radial-gradient-18" cx="1702" cy="424" xlink:href="#radial-gradient-2"/>
    <radialGradient id="radial-gradient-19" cx="799" cy="436.71" r="12.54" xlink:href="#linear-gradient"/>
    <radialGradient id="radial-gradient-20" cx="798" cy="437" xlink:href="#radial-gradient-2"/>
    <radialGradient id="radial-gradient-21" cx="651" cy="31.71" r="12.54" xlink:href="#linear-gradient"/>
    <radialGradient id="radial-gradient-22" cx="650" cy="32" xlink:href="#radial-gradient-2"/>
    <radialGradient id="radial-gradient-23" cx="807" cy="87.71" r="12.54" xlink:href="#linear-gradient"/>
    <radialGradient id="radial-gradient-24" cx="806" cy="88" xlink:href="#radial-gradient-2"/>
    <radialGradient id="radial-gradient-25" cx="888.32" cy="162.93" r="8.8" xlink:href="#linear-gradient"/>
    <radialGradient id="radial-gradient-26" cx="887.62" cy="163.13" r="4.21" xlink:href="#radial-gradient-2"/>
    <radialGradient id="radial-gradient-27" cx="996.66" cy="442.5" r="17.26" xlink:href="#linear-gradient"/>
    <radialGradient id="radial-gradient-28" cx="995.28" cy="442.89" r="8.26" xlink:href="#radial-gradient-2"/>
  </defs>
  <title>space</title>
  <g class="cls-1">
    <g id="bg">
      <g id="bg-2" data-name="bg">
        <rect class="cls-2" width="1799" height="484"/>
      </g>
      <g>
        <polygon class="cls-3" points="1553.75 46 1543.73 53.61 1552.97 45.07 1542.64 37.89 1553.61 44.04 1557.25 32 1554.79 44.34 1567.37 44.07 1554.87 45.55 1559.01 57.43 1553.75 46"/>
        <circle class="cls-4" cx="1554" cy="45" r="6"/>
      </g>
      <g>
        <polygon class="cls-5" points="1018.75 291 1008.73 298.61 1017.97 290.07 1007.64 282.89 1018.61 289.04 1022.25 277 1019.79 289.34 1032.37 289.07 1019.87 290.55 1024.01 302.43 1018.75 291"/>
        <circle class="cls-6" cx="1019" cy="290" r="6"/>
      </g>
      <g>
        <polygon class="cls-7" points="1025.75 121 1015.73 128.61 1024.97 120.07 1014.64 112.89 1025.61 119.04 1029.25 107 1026.79 119.34 1039.37 119.07 1026.87 120.55 1031.01 132.43 1025.75 121"/>
        <circle class="cls-8" cx="1026" cy="120" r="6"/>
      </g>
      <g>
        <polygon class="cls-9" points="1459.75 375 1449.73 382.61 1458.97 374.07 1448.64 366.89 1459.61 373.04 1463.25 361 1460.79 373.34 1473.37 373.07 1460.87 374.55 1465.01 386.43 1459.75 375"/>
        <circle class="cls-10" cx="1460" cy="374" r="6"/>
      </g>
      <g>
        <polygon class="cls-11" points="1168.75 438 1158.73 445.61 1167.97 437.07 1157.64 429.89 1168.61 436.04 1172.25 424 1169.79 436.34 1182.37 436.07 1169.87 437.55 1174.01 449.43 1168.75 438"/>
        <circle class="cls-12" cx="1169" cy="437" r="6"/>
      </g>
      <g>
        <polygon class="cls-13" points="1440.75 175 1430.73 182.61 1439.97 174.07 1429.64 166.89 1440.61 173.04 1444.25 161 1441.79 173.34 1454.37 173.07 1441.87 174.55 1446.01 186.43 1440.75 175"/>
        <circle class="cls-14" cx="1441" cy="174" r="6"/>
      </g>
      <g>
        <polygon class="cls-15" points="1708.75 123 1698.73 130.61 1707.97 122.07 1697.64 114.89 1708.61 121.04 1712.25 109 1709.79 121.34 1722.37 121.07 1709.87 122.55 1714.01 134.43 1708.75 123"/>
        <circle class="cls-16" cx="1709" cy="122" r="6"/>
      </g>
      <g>
        <polygon class="cls-17" points="1348.75 315 1338.73 322.61 1347.97 314.07 1337.64 306.89 1348.61 313.04 1352.25 301 1349.79 313.34 1362.37 313.07 1349.87 314.55 1354.01 326.43 1348.75 315"/>
        <circle class="cls-18" cx="1349" cy="314" r="6"/>
      </g>
      <g>
        <polygon class="cls-19" points="1701.75 425 1691.73 432.61 1700.97 424.07 1690.64 416.89 1701.61 423.04 1705.25 411 1702.79 423.34 1715.37 423.07 1702.87 424.55 1707.01 436.43 1701.75 425"/>
        <circle class="cls-20" cx="1702" cy="424" r="6"/>
      </g>
      <g>
        <polygon class="cls-21" points="797.75 438 787.73 445.61 796.97 437.07 786.64 429.89 797.61 436.04 801.25 424 798.79 436.34 811.37 436.07 798.87 437.55 803.01 449.43 797.75 438"/>
        <circle class="cls-22" cx="798" cy="437" r="6"/>
      </g>
      <g>
        <polygon class="cls-23" points="649.75 33 639.73 40.61 648.97 32.07 638.64 24.89 649.61 31.04 653.25 19 650.79 31.34 663.37 31.07 650.87 32.55 655.01 44.43 649.75 33"/>
        <circle class="cls-24" cx="650" cy="32" r="6"/>
      </g>
      <g>
        <polygon class="cls-25" points="805.75 89 795.73 96.61 804.97 88.07 794.64 80.89 805.61 87.04 809.25 75 806.79 87.34 819.37 87.07 806.87 88.55 811.01 100.43 805.75 89"/>
        <circle class="cls-26" cx="806" cy="88" r="6"/>
      </g>
      <g>
        <polygon class="cls-27" points="887.44 163.83 880.4 169.17 886.89 163.18 879.64 158.14 887.35 162.46 889.9 154 888.17 162.66 897 162.48 888.23 163.51 891.13 171.85 887.44 163.83"/>
        <circle class="cls-28" cx="887.62" cy="163.13" r="4.21"/>
      </g>
      <g>
        <polygon class="cls-29" points="994.93 444.27 981.14 454.74 993.86 442.99 979.64 433.11 994.75 441.58 999.75 425 996.36 441.98 1013.68 441.62 996.48 443.65 1002.17 460 994.93 444.27"/>
        <circle class="cls-30" cx="995.28" cy="442.89" r="8.26"/>
      </g>
      <g class="cls-31">
        <line class="cls-32" x1="1007.5" y1="434.5" x2="1516" y2="134"/>
      </g>
    </g>
    <g id="asteroid1">
      <g id="as4">
        <path class="cls-33" d="M831.62,552.9l10.28-14.19a10.4,10.4,0,0,1,8.71-5.52q20.57-3.41,41.18-6.53a15.62,15.62,0,0,1,6.42-.07c4.86,1.35,7.25,6.91,11.59,9.49,1.74,1,3.77,1.57,5.32,2.86,5.31,4.43,1.51,13.68,5.14,19.56,1,1.7,2.7,3,3.39,4.92,1.16,3.12-.74,6.61-3.25,8.8-11,9.62-30,2.12-41.7,10.95a82.87,82.87,0,0,0-29.63-7.94c-1.86-.14-3.85-.26-5.31-1.41s-2.11-3.24-3.12-4.9c-1.75-2.87-4.8-4.62-7.23-6.93s-4.35-5.9-2.92-8.93" transform="translate(-83 -222)"/>
        <path class="cls-33" d="M887.19,576c.14-6.18,5.19-12.58,11.78-12.65a4.74,4.74,0,0,1,2.27.34q3.24.65-.84,5c-1.2.86-3.58.63-5.08.76a108.2,108.2,0,0,1-11.39.1c-1.94,0-1.93,3,0,3,5.78.14,15,1.47,20-2.28,3.24-2.42,3.19-6.91-.43-8.92-9.23-5.13-19.11,6.2-19.3,14.66,0,1.93,3,1.93,3,0Z" transform="translate(-83 -222)"/>
        <path class="cls-34" d="M891.34,564.67a18.19,18.19,0,0,1,5.67-7.4,11.84,11.84,0,0,1,6.19-2.61,7,7,0,0,1,6,2.47,5,5,0,0,1-.11,6.27c-1.37,1.46-3.56,1.75-5.56,1.91-3.06.24-6.14.36-9.22.37a4.32,4.32,0,0,1-2.88-.71" transform="translate(-83 -222)"/>
        <path class="cls-34" d="M855.76,565.26c.34-1.68,2.39-2,3.74-1.29,1.8.94,2.72,3.13,3.5,4.89l1.3-2.26a13.87,13.87,0,0,1-6.94-2.09c-.12-.07-1.12-.85-1.15-.83-1.26.78.56.93.69,1,1.25.8,2.42,1.08,3.6,2.11,1.45,1.27,3.58-.85,2.12-2.12-1.63-1.43-3.81-2.95-6-3.12-1.46-.11-3.18.57-3.28,2.24-.12,2,2.24,3.21,3.73,4a17.38,17.38,0,0,0,7.28,1.83,1.52,1.52,0,0,0,1.3-2.26c-1.29-2.9-3.23-6.21-6.7-6.66-2.62-.35-5.48,1-6,3.78-.38,1.89,2.52,2.69,2.89.8Z" transform="translate(-83 -222)"/>
        <path class="cls-34" d="M860.1,565.65a3.25,3.25,0,0,0-5.28-3,1.51,1.51,0,0,0,0,2.12,1.54,1.54,0,0,0,2.12,0c-.13.09-.14.11-.05.06l-.08,0c.34-.06-.25.13.07,0-.13,0-.22-.05,0,0s.08,0-.07,0l.17.08c.13.07.2.16,0,0l.13.13c.07.08.06.06,0-.07l.06.11c-.06-.18-.07-.19,0,0s0-.08,0-.2a1.56,1.56,0,0,0,1,1.85,1.52,1.52,0,0,0,1.85-1.05Z" transform="translate(-83 -222)"/>
        <circle class="cls-34" cx="803.81" cy="320.54" r="2.89"/>
        <ellipse class="cls-34" cx="774.05" cy="326.18" rx="4.95" ry="4.82"/>
        <circle class="cls-34" cx="798.92" cy="347.25" r="1.65"/>
        <g class="cls-35">
          <path class="cls-36" d="M878.7,583.17c11.67-8.83,30.67-1.33,41.7-10.95,2.51-2.19,4.41-5.68,3.25-8.8-.69-1.87-2.34-3.22-3.39-4.92-.08-.13-.16-.27-.23-.41a160.89,160.89,0,0,0-22.67,5.16q-12.42,3.53-24.73,7.43c-4.17,1.32-8.35,2.68-12.63,3.62-2.49.55-5,1-7.53,1.27A82.9,82.9,0,0,1,878.7,583.17Z" transform="translate(-83 -222)"/>
        </g>
      </g>
      <g id="as3">
        <path class="cls-33" d="M991.05,264.77l19.31-2a43.42,43.42,0,0,1,6.58-.36,37.46,37.46,0,0,1,5.28.68q21.35,3.79,42.52,7.71a29.64,29.64,0,0,1,6,1.5c3.56,1.58,1.91,3.92,4.14,5.76.88.74,2.39,1.39,2.92,2.17,1.84,2.67-8.07,4.69-8.79,7.42-.2.79.39,1.61-.27,2.37-1.09,1.26-5.26,1.91-9.08,2-16.84.43-29.18-6.46-46.07-6.43-5.46-3.62-12.92-6.88-21.85-9.56-1.61-.48-3.37-1-3.92-1.7s.3-1.53.51-2.3c.37-1.32-1.23-2.6-1.88-3.91s.07-2.9,3.49-3.52" transform="translate(-83 -222)"/>
        <path class="cls-33" d="M1025.76,286.22a29.83,29.83,0,0,1,11-2c3.27-.1,10.47-.64,12.74,2.26l-.23-1.82c-1.63,2.4-9.47-.07-11.83-.59-3.42-.76-6.81-1.68-10.19-2.59a1.5,1.5,0,0,0-.8,2.89,128.1,128.1,0,0,0,15.79,3.66c3,.41,7.64,1.06,9.62-1.85a1.53,1.53,0,0,0-.24-1.82c-2.61-3.33-9.64-3.17-13.41-3.17a35.49,35.49,0,0,0-13.92,2.43c-1.76.76-.24,3.35,1.52,2.59Z" transform="translate(-83 -222)"/>
        <path class="cls-34" d="M1038,282.69a54.25,54.25,0,0,1,10.35-1,36.39,36.39,0,0,1,7.53.64c2.21.49,3.85,1.32,3.87,2.22s-1.85,1.81-4.43,2a23.77,23.77,0,0,1-6.45-.71c-3-.65-5.92-1.35-8.77-2.08-.93-.24-1.92-.51-2.17-.91" transform="translate(-83 -222)"/>
        <path class="cls-34" d="M1004.13,275.4a8.09,8.09,0,0,1,3.63-.17,6.76,6.76,0,0,1,1.61.39c.67.3.43.37,0,1l1.69-.69a17.5,17.5,0,0,1-3.36-1.21,8.61,8.61,0,0,1-1.13-.67,3.38,3.38,0,0,1-.46-.37c-.29-.36-.31-.26-.08.29l-.44,1.06c-.38.36-.14.11.39.2a3.59,3.59,0,0,1,.86.27,3.47,3.47,0,0,1,1.63,1.24c1,1.64,3.61.13,2.59-1.51a6.75,6.75,0,0,0-3.92-2.81c-1.28-.35-3.35-.51-4,1-1.26,3,5.32,4.94,7.1,5.43a1.55,1.55,0,0,0,1.7-.69c3.53-5.35-5.16-6.72-8.67-5.6-1.83.58-1.05,3.48.8,2.89Z" transform="translate(-83 -222)"/>
        <path class="cls-34" d="M1007.86,276.55a2.36,2.36,0,0,0,1.4-1,1.76,1.76,0,0,0-.19-1.95,3.8,3.8,0,0,0-3.07-1.12,1.5,1.5,0,0,0,0,3h.33c.09,0,.24,0,.07,0l.27.05c.05,0,.38.13.18.05s0,0,.06,0l-.2-.2a.62.62,0,0,1-.07-.71.61.61,0,0,1,.19-.81c.21-.18.26-.24.14-.17s-.06,0,.09,0a1.54,1.54,0,0,0-1,1.85,1.5,1.5,0,0,0,1.84,1Z" transform="translate(-83 -222)"/>
        <ellipse class="cls-34" cx="966.16" cy="52.6" rx="3.34" ry="1.15"/>
        <ellipse class="cls-34" cx="934.33" cy="46.45" rx="3.81" ry="1.31"/>
        <ellipse class="cls-34" cx="983.51" cy="56.66" rx="1.91" ry="0.65"/>
        <ellipse class="cls-34" cx="943.16" cy="59.9" rx="1.91" ry="0.65"/>
        <g class="cls-35">
          <path class="cls-36" d="M1013.56,285.55c16.89,0,29.23,6.86,46.07,6.43,3.82-.1,8-.75,9.08-2,.66-.76.07-1.58.27-2.37l.07-.18c-7.79-1.5-16.13-2.65-24.48-3.75q-13.9-1.85-28-3.52c-4.77-.57-9.56-1.14-14.16-1.85-2.68-.42-5.28-.89-7.83-1.39A79.3,79.3,0,0,1,1013.56,285.55Z" transform="translate(-83 -222)"/>
        </g>
      </g>
      <g id="as2">
        <path class="cls-33" d="M563.13,520.86,557,511.4a9.7,9.7,0,0,1-1.55-3.13,4.48,4.48,0,0,1,.31-2.27q2.9-8.91,6-17.72a4.22,4.22,0,0,1,1.51-2.38c2-1.24,6,.11,8.57-.45a16,16,0,0,1,3-.81c4-.17,8.68,4.93,13.12,5.95a25.78,25.78,0,0,1,3.81.72,8.62,8.62,0,0,1,4.55,4.72c3.17,7.89-6,11.86-3.43,19.67a26.27,26.27,0,0,0-12,7.69,3.05,3.05,0,0,1-2.14,1.39A14.9,14.9,0,0,1,575,524c-2.16-.51-4-.09-5.95-.12a8.6,8.6,0,0,1-6.13-2.51" transform="translate(-83 -222)"/>
        <path class="cls-33" d="M591,509c-2.23-1.5-5.26-4.4-5.09-7.4.06-1,.27-1.77,1.76-1.3s1.17,2.15.75,3.2a23,23,0,0,1-2.91,4.7c-1.13,1.57,1.47,3.07,2.59,1.52,1.79-2.49,4.67-6.07,3.44-9.33-1-2.63-4.48-4.31-6.91-2.53-2.05,1.5-2,4.38-1.19,6.54a15.17,15.17,0,0,0,6.05,7.19c1.61,1.08,3.11-1.52,1.51-2.59Z" transform="translate(-83 -222)"/>
        <path class="cls-34" d="M584.72,503.67a14.51,14.51,0,0,1-3.12-5.05,4.48,4.48,0,0,1-.1-3.31,2.68,2.68,0,0,1,3-1.23,5.6,5.6,0,0,1,3.78,2.55,2.91,2.91,0,0,1-.19,2.8,31.41,31.41,0,0,1-2,3.53,1.36,1.36,0,0,1-1.13.77" transform="translate(-83 -222)"/>
        <path class="cls-34" d="M576.94,516.26a1.85,1.85,0,0,1-.54-.61c0,.05-.37.05.17,0a9.86,9.86,0,0,1,3.29.72l-.9-2.2a3,3,0,0,1-1.21.89,5.54,5.54,0,0,1-.69.22c-.19.05-.39.09-.58.12q-.63,0,.15.66l-.2.76c.12-.29,1.37-.33,1.73-.34,1.93,0,1.94-3,0-3a5.8,5.8,0,0,0-3.89,1.2,2.16,2.16,0,0,0,.44,3.39c1.13.69,2.79.3,3.95-.16a6.42,6.42,0,0,0,2.89-2.23,1.5,1.5,0,0,0-.89-2.2c-1.86-.62-4.65-1.56-6.33,0s-1,3.68.49,4.9,3.6-.88,2.12-2.12Z" transform="translate(-83 -222)"/>
        <path class="cls-34" d="M577.92,514.59a2.81,2.81,0,0,0-2.52-.44,2,2,0,0,0-1.31,2.52,1.5,1.5,0,0,0,2.89-.8q-.09-.36-.09.3a.73.73,0,0,1-.42.76c-.1.05-.5.08-.26.09-.26,0-.08,0,.08,0-.24-.1,0,.06.12.12a1.51,1.51,0,0,0,2.05-.54,1.54,1.54,0,0,0-.54-2Z" transform="translate(-83 -222)"/>
        <ellipse class="cls-34" cx="570.19" cy="496.47" rx="1.27" ry="2.1" transform="translate(-241.16 477.18) rotate(-56.6)"/>
        <ellipse class="cls-34" cx="565.1" cy="509.63" rx="1.45" ry="2.4" transform="translate(-254.45 478.86) rotate(-56.6)"/>
        <ellipse class="cls-34" cx="574.08" cy="489.47" rx="0.73" ry="1.2" transform="translate(-233.57 477.29) rotate(-56.6)"/>
        <ellipse class="cls-34" cx="585.22" cy="508.95" rx="0.73" ry="1.2" transform="translate(-244.83 495.35) rotate(-56.6)"/>
        <g class="cls-35">
          <path class="cls-36" d="M592.89,515.7c-2.54-7.81,6.6-11.78,3.43-19.67a8.62,8.62,0,0,0-4.55-4.72,25.78,25.78,0,0,0-3.81-.72l-.3-.08a47.89,47.89,0,0,0-2.35,10.37q-.87,6-1.47,12A46.11,46.11,0,0,1,583,519a23.54,23.54,0,0,1-1.05,3.27A26.87,26.87,0,0,1,592.89,515.7Z" transform="translate(-83 -222)"/>
        </g>
      </g>
      <g id="as1">
        <path class="cls-33" d="M1603.51,489.17l16.87-4.76a10.34,10.34,0,0,1,10.25,1.06q18.25,10.06,36.37,20.39a15.5,15.5,0,0,1,5.08,3.93c3,4.07,1.41,9.92,3.22,14.63.72,1.88,2,3.56,2.4,5.54,1.42,6.76-7.3,11.67-8.09,18.54-.23,2,.23,4.06-.39,6-1,3.17-4.68,4.73-8,4.89-14.62.71-24.88-16.94-39.52-17.24a82.8,82.8,0,0,0-18.33-24.6c-1.37-1.26-2.86-2.59-3.29-4.4s.35-3.84.59-5.78c.4-3.33-.9-6.6-1.39-9.92s.25-7.32,3.25-8.81" transform="translate(-83 -222)"/>
        <path class="cls-33" d="M1632.72,541.85c3.78-4.58,10.51-6.45,15.93-3.53a8.16,8.16,0,0,1,2.11,1.49q-.48,6.23-3.7,4c-1.5-.36-3-1.67-4.29-2.53-2.93-2-5.65-4.25-8.37-6.51-1.47-1.23-3.6.88-2.12,2.12,4.48,3.72,10.54,10.06,16.66,10.68,4.17.41,7.43-3,5.82-7.08-3.85-9.82-18.78-7.24-24.17-.74-1.22,1.48.89,3.62,2.13,2.13Z" transform="translate(-83 -222)"/>
        <path class="cls-34" d="M1643.09,535.42a18.27,18.27,0,0,1,9-2.3,11.84,11.84,0,0,1,6.48,1.79,7,7,0,0,1,3.22,5.69,5,5,0,0,1-4,4.85c-2,.3-3.88-.83-5.55-1.94q-3.83-2.58-7.46-5.43a4.32,4.32,0,0,1-1.83-2.34" transform="translate(-83 -222)"/>
        <path class="cls-34" d="M1615,513.68c1.27-1.08,3.12.37,3.61,1.58.73,1.79.16,3.92-.29,5.69l2.5-.66a14.16,14.16,0,0,1-4.12-5.61c-.14-.35-.26-1.42-.5-1.6l-.49.54a5.82,5.82,0,0,1,.72,1.06,10.88,10.88,0,0,1,1.2,3.52c.35,1.9,3.24,1.09,2.89-.8a11.27,11.27,0,0,0-2.69-5.9c-1.24-1.24-3.42-1.62-4.38.15s.34,4,1.07,5.47a16.43,16.43,0,0,0,4.18,5.29,1.52,1.52,0,0,0,2.51-.66c.8-3.12,1.42-7.06-1.09-9.6a5.27,5.27,0,0,0-7.24-.59c-1.48,1.26.65,3.37,2.12,2.12Z" transform="translate(-83 -222)"/>
        <path class="cls-34" d="M1618.14,516.68a3.29,3.29,0,0,0-2.26-5.52,1.5,1.5,0,0,0,0,3c.35,0-.21.05.08,0q-.23-.1-.09,0t-.06-.06c.07.06.25.32.09.07,0,.05.19.39.08.08a2.37,2.37,0,0,1,.09.36c0-.26,0-.06,0,.09,0-.29,0,0,0-.12s0-.09,0,0c.12-.14.12-.15,0,0-1.41,1.32.71,3.44,2.12,2.12Z" transform="translate(-83 -222)"/>
        <circle class="cls-34" cx="1570.25" cy="293.24" r="2.89"/>
        <circle class="cls-34" cx="1543.05" cy="277.03" r="3.31"/>
        <circle class="cls-34" cx="1585.03" cy="303.86" r="1.65"/>
        <circle class="cls-34" cx="1549.85" cy="311.17" r="1.65"/>
        <g class="cls-35">
          <path class="cls-36" d="M1621.7,542.11c14.64.3,24.9,17.95,39.52,17.24,3.32-.16,7-1.72,8-4.89.62-1.9.16-4,.39-6,0-.16,0-.31.07-.47a162,162,0,0,0-21-10q-11.94-4.92-24-9.49c-4.1-1.55-8.22-3.07-12.16-5-2.3-1.12-4.52-2.36-6.7-3.68A82.94,82.94,0,0,1,1621.7,542.11Z" transform="translate(-83 -222)"/>
        </g>
      </g>
      <g id="as4-2" data-name="as4">
        <path class="cls-33" d="M1717.33,260l2.08-5.16a4.84,4.84,0,0,1,.81-1.52,2,2,0,0,1,1-.5c2.77-.82,5.54-1.62,8.32-2.38a1.82,1.82,0,0,1,1.3,0c1,.49,1.46,2.52,2.34,3.46a7.47,7.47,0,0,1,1.07,1c1.08,1.61.31,5,1,7.12a12.43,12.43,0,0,1,.69,1.8,4.64,4.64,0,0,1-.66,3.2c-2.23,3.5-6.07.77-8.43,4a11.5,11.5,0,0,0-6-2.89,1.36,1.36,0,0,1-1.07-.52,8.06,8.06,0,0,1-.63-1.78,12.6,12.6,0,0,0-1.46-2.53,4.6,4.6,0,0,1-.59-3.25" transform="translate(-83 -222)"/>
        <path class="cls-33" d="M1729.76,268.38a6.53,6.53,0,0,1,.37-2.28,3.85,3.85,0,0,1,.49-1c.09-.12.35-.27.4-.39s.08-.07.12,0a.56.56,0,0,1-.5-.12s-.06.31-.13.37c-.51.41-2,.15-2.61.12-1.93-.09-1.93,2.91,0,3,1.71.07,4,.18,5.12-1.41a3.25,3.25,0,0,0-.84-4.63c-1.41-.79-3,.07-3.87,1.22a8.44,8.44,0,0,0-1.55,5.13,1.5,1.5,0,0,0,3,0Z" transform="translate(-83 -222)"/>
        <path class="cls-34" d="M1729.4,264.26a7.54,7.54,0,0,1,1.14-2.69,2.09,2.09,0,0,1,1.26-1,1.25,1.25,0,0,1,1.22.9,3.07,3.07,0,0,1,0,2.29,1.31,1.31,0,0,1-1.13.69,14.55,14.55,0,0,1-1.86.14.61.61,0,0,1-.58-.26" transform="translate(-83 -222)"/>
        <path class="cls-34" d="M1723.42,264.33c0,.13,0,.15,0,.05s0-.08,0,.08a.85.85,0,0,1-.26.24,1,1,0,0,1-.91,0c-.09-.05-.23-.27-.19-.14a2.38,2.38,0,0,0,.17.31c-.09-.19,0,.08,0,.15.09.28.16.58.24.87l1.44-1.9c.34,0,0,0-.11,0,.36.12-.22-.16-.1-.07s-.2-.19-.24-.24-.07-.09,0,0c-.18-.29-.16-.11.06.56l-.39.66c-.58.44-1,.49-1.39.14l.16.15.15.17c-.08-.09-.07-.06,0,.1a1.54,1.54,0,0,0,2.06.53,1.51,1.51,0,0,0,.53-2.05,3.61,3.61,0,0,0-1.86-1.65,1.8,1.8,0,0,0-2.29,1.65c-.06,1.73,1.85,3,3.41,3.12a1.51,1.51,0,0,0,1.45-1.9c-.3-1.22-.77-2.79-2.12-3.2a2.13,2.13,0,0,0-2,.49,2.89,2.89,0,0,0-.83,1.93,1.5,1.5,0,0,0,1.5,1.5,1.55,1.55,0,0,0,1.5-1.5Z" transform="translate(-83 -222)"/>
        <path class="cls-34" d="M1724.29,264.47a2.15,2.15,0,0,0-.85-1.84,1.69,1.69,0,0,0-2.27.2,1.55,1.55,0,0,0,0,2.13,1.52,1.52,0,0,0,2.12,0l-.16.11-.75.21-.24,0-.67-.38c.13.11.11.07,0-.11a.58.58,0,0,1-.15-.29,1.5,1.5,0,0,0,1.5,1.5,1.53,1.53,0,0,0,1.5-1.5Z" transform="translate(-83 -222)"/>
        <ellipse class="cls-34" cx="1645.48" cy="34.2" rx="0.58" ry="1.05"/>
        <ellipse class="cls-34" cx="1639.47" cy="36.25" rx="1" ry="1.75"/>
        <ellipse class="cls-34" cx="1644.49" cy="43.93" rx="0.33" ry="0.6"/>
        <g class="cls-35">
          <path class="cls-36" d="M1726.84,271c2.36-3.22,6.2-.49,8.43-4a4.64,4.64,0,0,0,.66-3.2,12.43,12.43,0,0,0-.69-1.8c0-.05,0-.1,0-.15a21.37,21.37,0,0,0-4.58,1.88c-1.68.86-3.34,1.76-5,2.71a20.72,20.72,0,0,1-2.56,1.32,10.59,10.59,0,0,1-1.52.46A11.83,11.83,0,0,1,1726.84,271Z" transform="translate(-83 -222)"/>
        </g>
      </g>
    </g>
    <g id="moon">
      <g>
        <g id="drk-moon">
          <circle class="cls-37" cx="1265" cy="190" r="124"/>
        </g>
        <g id="lit-moon">
          <ellipse class="cls-38" cx="1247.5" cy="190" rx="102.5" ry="114"/>
        </g>
        <g id="divet1">
          <circle class="cls-37" cx="1216" cy="174" r="22"/>
          <circle class="cls-38" cx="1213.09" cy="172.09" r="18.96"/>
        </g>
        <g id="divet1-2" data-name="divet1">
          <circle class="cls-37" cx="1279.5" cy="255.5" r="14.5"/>
          <circle class="cls-38" cx="1277.58" cy="254.24" r="12.5"/>
        </g>
        <path id="right_crater" data-name="right crater" class="cls-37" d="M1472.07,449.15c-.07-.15,5.28-25,5.28-25a9.92,9.92,0,0,0-7.7-11.69h0a9.92,9.92,0,0,0-11.76,7.58l-5.29,25a9.94,9.94,0,0,0,7.71,11.69h0C1446.35,453.79,1472.14,449.3,1472.07,449.15Z" transform="translate(-83 -222)"/>
        <path id="bottom_left_crater" data-name="bottom left crater" class="cls-38" d="M1235.83,478.35c-1.83,5.65,12.83,21.15,12.83,21.15s8.81,7.27,13.54,4.53h0a9.92,9.92,0,0,0,3.67-13.51L1253,468.37a9.93,9.93,0,0,0-13.54-3.53h0C1251.83,457.69,1237.65,472.7,1235.83,478.35Z" transform="translate(-83 -222)"/>
        <path id="top_left_crater" data-name="top left crater" class="cls-38" d="M1270.23,309.56c-5.92-.51-17.71,17.27-17.71,17.27s-5.11,10.22-1.37,14.21h0a9.93,9.93,0,0,0,14,.54l18.68-17.5a9.92,9.92,0,0,0,.39-14h0C1294,320.5,1276.15,310.07,1270.23,309.56Z" transform="translate(-83 -222)"/>
        <circle id="divet_4" data-name="divet 4" class="cls-37" cx="1281" cy="131" r="9"/>
        <circle id="divet_3" data-name="divet 3" class="cls-37" cx="1342" cy="223" r="13"/>
        <circle id="divet2" class="cls-37" cx="1199.5" cy="245.5" r="4.5"/>
        <circle id="divet" class="cls-39" cx="1170" cy="191" r="6"/>
      </g>
    </g>
    <g id="rocket">
      <g>
        <g id="top_wing" data-name="top wing">
          <g>
            <path class="cls-40" d="M780.62,342.15q-13.41,2.52-26.66,5.71l0-.07-7.53-3.9a16.75,16.75,0,0,0-3.08-1.33,16.09,16.09,0,0,0-4.7-.32c-11.86.39-23.92,1.15-35,5.33l-.34-.07a27.57,27.57,0,0,1,5.43-3.31A199.43,199.43,0,0,1,753.9,328a14.11,14.11,0,0,1,4.28-.51c2.27.18,4.32,1.38,6.27,2.55,5.64,3.38,11.36,6.82,15.87,11.61" transform="translate(-83 -222)"/>
            <path class="cls-40" d="M780.22,340.71q-13.4,2.54-26.66,5.7l1.46,2.51.05-.07a1.51,1.51,0,0,0-.3-2.35c-3.71-1.92-7.62-4.67-11.74-5.52s-9-.1-13.24.17-8.57.7-12.8,1.4c-2.63.44-5.23,1-7.8,1.68-1.21.33-4.38,2-5.45,1.82l.36,2.75c5.42-4.11,12.27-6.72,18.52-9.3a202.53,202.53,0,0,1,19.16-6.77c3-.87,5.93-1.68,8.92-2.42,4.95-1.22,8.29-1.59,13,1a68.47,68.47,0,0,1,15.57,11.38c1.35,1.38,3.47-.74,2.12-2.12a72.54,72.54,0,0,0-17.66-12.71c-5.89-3.14-11.28-1.19-17.4.45a200.85,200.85,0,0,0-22.79,7.58c-7,2.82-14.86,5.68-20.95,10.29-.93.7-1,2.45.36,2.74,2.35.49,5.6-1.46,7.9-2.06a92.21,92.21,0,0,1,14.49-2.39c4.42-.41,8.93-.79,13.37-.76,5.51,0,9.79,2.88,14.56,5.35l-.31-2.36-.05.07a1.51,1.51,0,0,0,1.46,2.51q13.26-3.18,26.66-5.71c1.89-.36,1.09-3.25-.8-2.89Z" transform="translate(-83 -222)"/>
          </g>
          <path class="cls-41" d="M767.7,346.07l-10.23,2a6.57,6.57,0,0,1-4.7-.34q-3.4-1.32-6.69-2.92a18.13,18.13,0,0,0-3.88-1.57,15.79,15.79,0,0,0-3.51-.24,145.06,145.06,0,0,0-35.77,4.89h0c7.83-4,16.45-6.12,25-8.22l10.65-2.62c2-.5,4.07-1,6.13-1.43a16.06,16.06,0,0,1,4.83-.42c2.88.32,5.4,2,7.79,3.69l9.54,6.63" transform="translate(-83 -222)"/>
        </g>
        <g id="bottom_wing" data-name="bottom wing">
          <g>
            <path class="cls-40" d="M782.47,377.32q-13.41-2.52-26.67-5.71l.06.07-7.53,3.9a16.1,16.1,0,0,1-3.08,1.33,15.75,15.75,0,0,1-4.7.32c-11.86-.39-23.93-1.14-35-5.33l-.33.07a26.75,26.75,0,0,0,5.42,3.31,199.43,199.43,0,0,0,45.13,16.18A14.47,14.47,0,0,0,760,392c2.28-.18,4.32-1.39,6.28-2.56,5.64-3.38,11.36-6.82,15.86-11.61" transform="translate(-83 -222)"/>
            <path class="cls-40" d="M782.86,375.87q-13.4-2.53-26.66-5.71a1.52,1.52,0,0,0-1.46,2.51l.06.07.3-2.35c-4.76,2.46-9.05,5.3-14.55,5.34-4.44,0-8.95-.35-13.37-.76a92.21,92.21,0,0,1-14.49-2.39c-2.3-.6-5.55-2.55-7.9-2.06-1.41.3-1.29,2-.36,2.75,6.1,4.61,13.89,7.46,21,10.29a200.2,200.2,0,0,0,22.79,7.58c6.12,1.63,11.51,3.58,17.4.45a72.79,72.79,0,0,0,17.65-12.72c1.36-1.38-.76-3.5-2.12-2.12a69.47,69.47,0,0,1-15.56,11.38c-4.19,2.38-7.54,2.35-12.1,1.25q-4.94-1.2-9.81-2.64A198.8,198.8,0,0,1,724.47,380c-6.25-2.58-13.11-5.19-18.53-9.29l-.36,2.74c.92-.19,3.58,1.3,4.6,1.59a76.69,76.69,0,0,0,7.78,1.75,125.4,125.4,0,0,0,13.67,1.56c4,.26,8.47.91,12.47.32,4.41-.66,8.62-3.65,12.52-5.66a1.53,1.53,0,0,0,.3-2.36l-.06-.07-1.45,2.51q13.26,3.17,26.66,5.7c1.88.36,2.69-2.53.79-2.89Z" transform="translate(-83 -222)"/>
          </g>
          <path class="cls-41" d="M769.55,373.4l-10.23-2a8.9,8.9,0,0,0-2.67-.24,8.76,8.76,0,0,0-2,.58q-3.39,1.32-6.68,2.92a18.35,18.35,0,0,1-3.88,1.57,15.25,15.25,0,0,1-3.51.24,145.08,145.08,0,0,1-35.78-4.89v0c7.83,4,16.45,6.11,25,8.21l10.64,2.63c2,.5,4.08,1,6.13,1.42a15.77,15.77,0,0,0,4.83.42c2.89-.32,5.41-2,7.8-3.69l9.54-6.63" transform="translate(-83 -222)"/>
        </g>
        <path class="cls-42" d="M819.75,370.08c23.9,0,44.75-3.82,55.83-9.48,0-.23,0-.46,0-.68-1.27-11.32-29.92-20.44-66.84-20.44A225.14,225.14,0,0,0,771.52,343a147.37,147.37,0,0,0-14.37,4,6.49,6.49,0,0,0-1.7,4.32C755.45,361.65,784.24,370.08,819.75,370.08Z" transform="translate(-83 -222)"/>
        <path class="cls-42" d="M819.75,370.08c-35.51,0-64.3-8.43-64.3-18.82a6.9,6.9,0,0,1,1.7-4.32c-9.5,3.53-15.21,8.05-15.21,13,0,11.28,29.93,20.43,66.84,20.43,36.17,0,65.62-8.78,66.8-19.75C864.5,366.26,843.65,370.08,819.75,370.08Z" transform="translate(-83 -222)"/>
        <path class="cls-40" d="M853.88,374.92a95.28,95.28,0,0,0,0-29.82l-.08-.19c15.24,3,23.29,14.11,24.25,14.91s-5.3,10.9-24.25,14.92" transform="translate(-83 -222)"/>
        <path class="cls-43" d="M820.86,370.08c-36.23,0-65.6-8.43-65.6-18.82a6.79,6.79,0,0,1,1.74-4.32c-9.7,3.53-15.52,8.05-15.52,13,0,11.28,30.54,19.65,68.19,20.43,36.51-1.5,61.05-7.24,68.14-19.75C866.51,366.26,845.24,370.08,820.86,370.08Z" transform="translate(-83 -222)"/>
        <path class="cls-44" d="M744,354.29c-1.92-2.38-5.28-3.09-8.38-3.53-7.89-1.13-16.1-1.53-23.74.73-7.32,2.17-14,6.72-21.61,7.16,10.49.81,19.93,6.29,30.13,8.78a53.84,53.84,0,0,0,15.23,1.46c2.73-.13,5.56-.5,7.85-1.93a2.41,2.41,0,0,0,.91-.85,2.6,2.6,0,0,0,.2-1.23,82.57,82.57,0,0,0-.78-10.66" transform="translate(-83 -222)"/>
        <path class="cls-45" d="M744.9,356.68c-1.41-1.76-3.88-2.28-6.15-2.6-5.81-.83-11.84-1.13-17.46.54-5.37,1.59-10.27,4.94-15.88,5.26,7.72.59,14.65,4.62,22.15,6.45a39.36,39.36,0,0,0,11.19,1.07,11.85,11.85,0,0,0,5.77-1.41,1.77,1.77,0,0,0,.67-.63,1.88,1.88,0,0,0,.14-.91,60.39,60.39,0,0,0-.57-7.83" transform="translate(-83 -222)"/>
        <g class="cls-46">
          <path d="M725.5,359.5c-4-.5-8.1-.82-12.07-1.67a30.36,30.36,0,0,1-9.22-3.4c-4.53,2-9,3.94-13.94,4.22,10.49.81,19.93,6.29,30.13,8.78a53.84,53.84,0,0,0,15.23,1.46c2.73-.13,5.56-.5,7.85-1.93a2.41,2.41,0,0,0,.91-.85,2.6,2.6,0,0,0,.2-1.23c0-.47,0-.94,0-1.41a42,42,0,0,0-4.37-1.28A133.1,133.1,0,0,0,725.5,359.5Z" transform="translate(-83 -222)"/>
        </g>
        <polygon class="cls-40" points="658.6 148.54 658.6 126.83 665.99 128.19 665.99 147.45 658.6 148.54"/>
        <circle class="cls-40" cx="724.97" cy="137.57" r="13.04"/>
        <circle class="cls-41" cx="725.09" cy="137.69" r="11.08"/>
        <circle class="cls-47" cx="725.09" cy="137.69" r="9.93"/>
        <circle class="cls-48" cx="724.74" cy="137.34" r="8.43"/>
        <circle class="cls-47" cx="725.55" cy="138.84" r="8.77"/>
        <circle class="cls-49" cx="724.51" cy="125.56" r="0.58"/>
        <circle class="cls-49" cx="733.52" cy="129.03" r="0.58"/>
        <circle class="cls-49" cx="736.98" cy="136.19" r="0.58"/>
        <circle class="cls-49" cx="735.13" cy="144.27" r="0.58"/>
        <circle class="cls-49" cx="727.05" cy="149.35" r="0.58"/>
        <circle class="cls-49" cx="717.36" cy="147.04" r="0.58"/>
        <circle class="cls-49" cx="713.2" cy="139.65" r="0.58"/>
        <circle class="cls-49" cx="715.51" cy="130.18" r="0.58"/>
      </g>
    </g>
  </g>
</svg>
